<svg width="287" height="83" viewBox="0 0 287 83" fill="none" xmlns="http://www.w3.org/2000/svg">
<rect x="39.598" y="1.90202" width="56" height="56" rx="14" transform="rotate(45 39.598 1.90202)" fill="#FFDA1A"/>
<circle cx="39.598" cy="41.5" r="8.40001" fill="#0051BA"/>
<path d="M119.292 64.768C115.708 64.768 112.572 64.0213 109.884 62.528C107.196 61.0347 105.105 58.944 103.612 56.256C102.119 53.568 101.372 50.4107 101.372 46.784C101.372 43.1573 102.119 40.0213 103.612 37.376C105.105 34.688 107.175 32.5973 109.82 31.104C112.508 29.568 115.644 28.8 119.228 28.8C122.812 28.8 125.905 29.568 128.508 31.104C131.153 32.5973 133.18 34.752 134.588 37.568C135.996 40.384 136.7 43.7333 136.7 47.616V49.664H112.764C112.892 52.0533 113.553 53.8453 114.748 55.04C115.985 56.192 117.564 56.768 119.484 56.768C120.935 56.768 122.151 56.4907 123.132 55.936C124.113 55.3387 124.817 54.3787 125.244 53.056L136.252 53.696C135.313 57.28 133.329 60.032 130.3 61.952C127.271 63.8293 123.601 64.768 119.292 64.768ZM112.764 43.392H125.564C125.479 41.1307 124.86 39.4453 123.708 38.336C122.556 37.184 121.063 36.608 119.228 36.608C117.479 36.608 116.007 37.2053 114.812 38.4C113.66 39.5947 112.977 41.2587 112.764 43.392ZM156.01 64C152.298 64 149.568 63.1467 147.818 61.44C146.112 59.6907 145.258 56.9173 145.258 53.12V21.504H156.266V51.712C156.266 53.376 156.608 54.528 157.29 55.168C158.016 55.7653 159.104 56.064 160.554 56.064H165.29V64H156.01ZM139.562 37.504V29.568H165.29V37.504H139.562ZM180.453 64C177.381 64 174.992 63.232 173.285 61.696C171.578 60.16 170.725 57.664 170.725 54.208V18.56H181.733V52.992C181.733 54.1013 181.989 54.8907 182.501 55.36C183.013 55.8293 183.738 56.064 184.677 56.064H186.789V64H180.453ZM202.097 64.768C198.513 64.768 195.569 63.936 193.265 62.272C190.961 60.608 189.809 58.304 189.809 55.36C189.809 52.3307 190.791 49.984 192.753 48.32C194.716 46.656 197.575 45.44 201.329 44.672L212.017 42.496C212.017 40.4907 211.569 38.976 210.673 37.952C209.82 36.8853 208.583 36.352 206.961 36.352C205.34 36.352 204.06 36.7573 203.121 37.568C202.225 38.336 201.649 39.4453 201.393 40.896L190.385 40.512C191.068 36.544 192.839 33.6 195.697 31.68C198.556 29.76 202.311 28.8 206.961 28.8C212.337 28.8 216.348 30.016 218.993 32.448C221.681 34.88 223.025 38.5067 223.025 43.328V54.208C223.025 55.2747 223.196 55.9787 223.537 56.32C223.921 56.6613 224.433 56.832 225.073 56.832H225.905V64C225.564 64.128 225.009 64.2347 224.241 64.32C223.473 64.4053 222.727 64.448 222.001 64.448C220.679 64.448 219.399 64.2347 218.161 63.808C216.924 63.3387 215.9 62.528 215.089 61.376C214.279 60.1813 213.873 58.4747 213.873 56.256L214.705 57.088C214.279 58.624 213.511 59.9893 212.401 61.184C211.335 62.336 209.948 63.232 208.241 63.872C206.535 64.4693 204.487 64.768 202.097 64.768ZM204.977 57.6C206.343 57.6 207.559 57.3227 208.625 56.768C209.692 56.2133 210.524 55.4027 211.121 54.336C211.719 53.2693 212.017 51.9467 212.017 50.368V48.96L205.361 50.496C204.039 50.7947 202.993 51.264 202.225 51.904C201.5 52.5013 201.137 53.312 201.137 54.336C201.137 55.36 201.457 56.1707 202.097 56.768C202.737 57.3227 203.697 57.6 204.977 57.6ZM239.64 64C236.568 64 234.179 63.232 232.472 61.696C230.766 60.16 229.912 57.664 229.912 54.208V18.56H240.92V52.992C240.92 54.1013 241.176 54.8907 241.688 55.36C242.2 55.8293 242.926 56.064 243.864 56.064H245.976V64H239.64ZM261.285 64.768C257.701 64.768 254.757 63.936 252.453 62.272C250.149 60.608 248.997 58.304 248.997 55.36C248.997 52.3307 249.978 49.984 251.941 48.32C253.904 46.656 256.762 45.44 260.517 44.672L271.205 42.496C271.205 40.4907 270.757 38.976 269.861 37.952C269.008 36.8853 267.77 36.352 266.149 36.352C264.528 36.352 263.248 36.7573 262.309 37.568C261.413 38.336 260.837 39.4453 260.581 40.896L249.573 40.512C250.256 36.544 252.026 33.6 254.885 31.68C257.744 29.76 261.498 28.8 266.149 28.8C271.525 28.8 275.536 30.016 278.181 32.448C280.869 34.88 282.213 38.5067 282.213 43.328V54.208C282.213 55.2747 282.384 55.9787 282.725 56.32C283.109 56.6613 283.621 56.832 284.261 56.832H285.093V64C284.752 64.128 284.197 64.2347 283.429 64.32C282.661 64.4053 281.914 64.448 281.189 64.448C279.866 64.448 278.586 64.2347 277.349 63.808C276.112 63.3387 275.088 62.528 274.277 61.376C273.466 60.1813 273.061 58.4747 273.061 56.256L273.893 57.088C273.466 58.624 272.698 59.9893 271.589 61.184C270.522 62.336 269.136 63.232 267.429 63.872C265.722 64.4693 263.674 64.768 261.285 64.768ZM264.165 57.6C265.53 57.6 266.746 57.3227 267.813 56.768C268.88 56.2133 269.712 55.4027 270.309 54.336C270.906 53.2693 271.205 51.9467 271.205 50.368V48.96L264.549 50.496C263.226 50.7947 262.181 51.264 261.413 51.904C260.688 52.5013 260.325 53.312 260.325 54.336C260.325 55.36 260.645 56.1707 261.285 56.768C261.925 57.3227 262.885 57.6 264.165 57.6Z" fill="#0051BA"/>
</svg>
